# xmcd
#
# Track frame offsets:
#	150
#	10507
#	21920
#	31342
#	41090
#	55475
#	67062
#	78520
#	89325
#	98487
#	112577
#	122760
#	132632
#	145517
#	158012
#	167702
#	177937
#	188962
#	202067
#	211927
#
# Disc length: 2968 seconds
#
# Revision: 2
# Processed by: cddbd v1.5.2PL0 Copyright (c) Steve Scherf et al.
# Submitted via: audiograbber 1.83.01
#
DISCID=0e0b9614
DTITLE=Jim Reeves - The Essential Jim Reeves - Disc 2
DYEAR=2006
DGENRE=Country
TTITLE0=Losing Your Love
TTITLE1=Adios Amigo
TTITLE2=I'm Gonna Change Everything
TTITLE3=Is This Me?
TTITLE4=Guilty
TTITLE5=Welcome To My World
TTITLE6=Love Is No Excuse  (with Dottie West)
TTITLE7=I Guess I'm Crazy
TTITLE8=I Won't Forget You
TTITLE9=This Is It
TTITLE10=Is It Really Over?
TTITLE11=Snow Flake
TTITLE12=Distant Drums
TTITLE13=Blue Side Of Lonesome
TTITLE14=I Won't Come In While He's There
TTITLE15=I Heard A Heart Break Last Night
TTITLE16=That's When I See The Blues (In Your Pretty Brown Eyes)
TTITLE17=When You Are Gone
TTITLE18=When Two Worlds Collide
TTITLE19=Angels Don't Lie
EXTD=
EXTT0=
EXTT1=
EXTT2=
EXTT3=
EXTT4=
EXTT5=
EXTT6=
EXTT7=
EXTT8=
EXTT9=
EXTT10=
EXTT11=
EXTT12=
EXTT13=
EXTT14=
EXTT15=
EXTT16=
EXTT17=
EXTT18=
EXTT19=
PLAYORDER=
